<svg xmlns="http://www.w3.org/2000/svg" xmlns:xlink="http://www.w3.org/1999/xlink" viewBox="0 0 64 64" fill="#1B1818">
  <path d="M7 8C5.347656 8 4 9.347656 4 11L4 53C4 54.652344 5.347656 56 7 56L57 56C58.652344 56 60 54.652344 60 53L60 11C60 9.347656 58.652344 8 57 8 Z M 7 10L57 10C57.550781 10 58 10.449219 58 11L58 53C58 53.550781 57.550781 54 57 54L7 54C6.449219 54 6 53.550781 6 53L6 20L47 20C47.550781 20 48 19.554688 48 19C48 18.445313 47.550781 18 47 18L6 18L6 11C6 10.449219 6.449219 10 7 10 Z M 10 12C9.449219 12 9 12.445313 9 13L9 15C9 15.554688 9.449219 16 10 16C10.550781 16 11 15.554688 11 15L11 13C11 12.445313 10.550781 12 10 12 Z M 15 12C14.449219 12 14 12.445313 14 13L14 15C14 15.554688 14.449219 16 15 16C15.550781 16 16 15.554688 16 15L16 13C16 12.445313 15.550781 12 15 12 Z M 20 12C19.449219 12 19 12.445313 19 13L19 15C19 15.554688 19.449219 16 20 16C20.550781 16 21 15.554688 21 15L21 13C21 12.445313 20.550781 12 20 12 Z M 25 12C24.449219 12 24 12.445313 24 13L24 15C24 15.554688 24.449219 16 25 16C25.550781 16 26 15.554688 26 15L26 13C26 12.445313 25.550781 12 25 12 Z M 30 12C29.449219 12 29 12.445313 29 13L29 15C29 15.554688 29.449219 16 30 16C30.550781 16 31 15.554688 31 15L31 13C31 12.445313 30.550781 12 30 12 Z M 35 12C34.449219 12 34 12.445313 34 13L34 15C34 15.554688 34.449219 16 35 16C35.550781 16 36 15.554688 36 15L36 13C36 12.445313 35.550781 12 35 12 Z M 40 12C39.449219 12 39 12.445313 39 13L39 15C39 15.554688 39.449219 16 40 16C40.550781 16 41 15.554688 41 15L41 13C41 12.445313 40.550781 12 40 12 Z M 45 12C44.449219 12 44 12.445313 44 13L44 15C44 15.554688 44.449219 16 45 16C45.550781 16 46 15.554688 46 15L46 13C46 12.445313 45.550781 12 45 12 Z M 50 12C49.449219 12 49 12.445313 49 13L49 15C49 15.554688 49.449219 16 50 16C50.550781 16 51 15.554688 51 15L51 13C51 12.445313 50.550781 12 50 12 Z M 55 12C54.449219 12 54 12.445313 54 13L54 15C54 15.554688 54.449219 16 55 16C55.550781 16 56 15.554688 56 15L56 13C56 12.445313 55.550781 12 55 12 Z M 51 18C50.449219 18 50 18.445313 50 19C50 19.554688 50.449219 20 51 20L55 20C55.550781 20 56 19.554688 56 19C56 18.445313 55.550781 18 55 18 Z M 31 24C30.449219 24 30 24.445313 30 25L30 40L26 40L26 37C26 36.445313 25.550781 36 25 36L19 36C18.449219 36 18 36.445313 18 37L18 48L13 48C12.449219 48 12 48.445313 12 49C12 49.554688 12.449219 50 13 50L49 50C49.550781 50 50 49.554688 50 49C50 48.445313 49.550781 48 49 48L44 48L44 31C44 30.445313 43.550781 30 43 30L38 30L38 25C38 24.445313 37.550781 24 37 24 Z M 32 26L36 26L36 48L32 48 Z M 38 32L42 32L42 48L38 48 Z M 20 38L24 38L24 48L20 48 Z M 26 42L30 42L30 48L26 48Z" fill="#1B1818" />
</svg>