<?xml version="1.0" encoding="UTF-8"?>
<svg xmlns="http://www.w3.org/2000/svg" xmlns:xlink="http://www.w3.org/1999/xlink" width="18pt" height="18pt" viewBox="0 0 18 18" version="1.1">
<g id="surface1">
<path style=" stroke:none;fill-rule:nonzero;fill:rgb(6.27451%,6.27451%,6.27451%);fill-opacity:1;" d="M 1.078125 0 C 0.488281 0 0 0.488281 0 1.078125 L 0 16.921875 C 0 17.511719 0.488281 18 1.078125 18 L 13.320312 18 C 13.910156 18 14.398438 17.511719 14.398438 16.921875 L 14.398438 14.039062 L 13.679688 14.761719 L 13.679688 16.921875 C 13.679688 17.121094 13.523438 17.28125 13.320312 17.28125 L 1.078125 17.28125 C 0.878906 17.28125 0.71875 17.121094 0.71875 16.921875 L 0.71875 1.078125 C 0.71875 0.875 0.875 0.71875 1.078125 0.71875 L 13.320312 0.71875 C 13.523438 0.71875 13.679688 0.878906 13.679688 1.078125 L 13.679688 3.238281 L 14.398438 3.960938 L 14.398438 1.078125 C 14.398438 0.488281 13.910156 0 13.320312 0 Z M 13.625 4.714844 C 13.488281 4.738281 13.378906 4.835938 13.34375 4.96875 C 13.304688 5.097656 13.34375 5.238281 13.445312 5.332031 L 16.75 8.640625 L 6.121094 8.640625 C 6.109375 8.640625 6.097656 8.640625 6.085938 8.640625 C 5.886719 8.648438 5.734375 8.820312 5.742188 9.015625 C 5.753906 9.214844 5.921875 9.371094 6.121094 9.359375 L 16.75 9.359375 L 13.445312 12.667969 C 13.335938 12.753906 13.289062 12.894531 13.320312 13.027344 C 13.347656 13.164062 13.453125 13.269531 13.589844 13.300781 C 13.722656 13.328125 13.863281 13.28125 13.949219 13.171875 L 17.875 9.257812 L 18.125 9 L 17.875 8.742188 L 13.949219 4.828125 C 13.875 4.746094 13.765625 4.707031 13.65625 4.714844 C 13.644531 4.714844 13.636719 4.714844 13.625 4.714844 Z M 13.625 4.714844 "/>
</g>
</svg>
