<?xml version="1.0" encoding="UTF-8"?>
<svg xmlns="http://www.w3.org/2000/svg" xmlns:xlink="http://www.w3.org/1999/xlink" width="18pt" height="18pt" viewBox="0 0 18 18" version="1.1">
<g id="surface1">
<path style=" stroke:none;fill-rule:nonzero;fill:rgb(6.27451%,6.27451%,6.27451%);fill-opacity:1;" d="M 9 0.71875 C 4.429688 0.71875 0.71875 4.429688 0.71875 9 C 0.71875 13.570312 4.429688 17.28125 9 17.28125 C 13.570312 17.28125 17.28125 13.570312 17.28125 9 C 17.28125 4.429688 13.570312 0.71875 9 0.71875 Z M 9 1.441406 C 13.179688 1.441406 16.558594 4.820312 16.558594 9 C 16.558594 13.179688 13.179688 16.558594 9 16.558594 C 4.820312 16.558594 1.441406 13.179688 1.441406 9 C 1.441406 4.820312 4.820312 1.441406 9 1.441406 Z M 9 3.960938 C 8.402344 3.960938 7.921875 4.445312 7.921875 5.039062 C 7.921875 5.636719 8.402344 6.121094 9 6.121094 C 9.597656 6.121094 10.078125 5.636719 10.078125 5.039062 C 10.078125 4.445312 9.597656 3.960938 9 3.960938 Z M 7.558594 7.558594 L 7.558594 8.28125 L 8.28125 8.28125 L 8.28125 12.960938 L 7.558594 12.960938 L 7.558594 13.679688 L 10.441406 13.679688 L 10.441406 12.960938 L 9.71875 12.960938 L 9.71875 7.558594 Z M 7.558594 7.558594 "/>
</g>
</svg>
