<?xml version="1.0" encoding="UTF-8"?>
<svg xmlns="http://www.w3.org/2000/svg" xmlns:xlink="http://www.w3.org/1999/xlink" width="16" height="16" viewBox="0 0 16 16" version="1.1">
<g id="surface1">
<path style=" stroke:none;fill-rule:nonzero;fill:rgb(18.039216%,79.215686%,41.176471%);fill-opacity:1;" d="M 14.371094 1.628906 C 13.527344 0.785156 12.40625 0.320312 11.210938 0.320312 C 10.019531 0.320312 8.898438 0.785156 8.054688 1.628906 C 7.800781 1.882812 1.894531 7.789062 1.628906 8.054688 C -0.113281 9.796875 -0.113281 12.628906 1.628906 14.371094 C 2.472656 15.214844 3.59375 15.679688 4.789062 15.679688 C 5.980469 15.679688 7.101562 15.214844 7.945312 14.371094 C 8.164062 14.152344 14.101562 8.214844 14.371094 7.945312 C 16.113281 6.203125 16.113281 3.371094 14.371094 1.628906 Z M 13.921875 7.492188 C 13.800781 7.609375 12.589844 8.820312 11.25 10.160156 L 5.839844 4.746094 C 7.183594 3.40625 8.394531 2.191406 8.507812 2.082031 C 9.230469 1.359375 10.191406 0.960938 11.210938 0.960938 C 12.234375 0.960938 13.195312 1.359375 13.917969 2.082031 C 15.410156 3.574219 15.410156 6 13.921875 7.492188 Z M 13.921875 7.492188 "/>
</g>
</svg>
