<svg xmlns="http://www.w3.org/2000/svg" xmlns:xlink="http://www.w3.org/1999/xlink" viewBox="0 0 64 64" fill="#1B1818">
  <path d="M15 4C13.347656 4 12 5.347656 12 7L12 10L7 10C5.300781 10 4 11.390625 4 13.011719L4 54.957031C4 56.578125 5.300781 57.96875 7 57.96875L55 57.96875C56.699219 57.96875 58 56.578125 58 54.957031L58 13.011719C58 11.390625 56.699219 10 55 10L50 10L50 7C50 5.347656 48.652344 4 47 4C45.347656 4 44 5.347656 44 7L44 10L34 10L34 7C34 5.347656 32.652344 4 31 4C29.347656 4 28 5.347656 28 7L28 10L18 10L18 7C18 5.347656 16.652344 4 15 4 Z M 15 6C15.550781 6 16 6.449219 16 7L16 15C16 15.550781 15.550781 16 15 16C14.449219 16 14 15.550781 14 15L14 7C14 6.449219 14.449219 6 15 6 Z M 31 6C31.550781 6 32 6.449219 32 7L32 15C32 15.550781 31.550781 16 31 16C30.449219 16 30 15.550781 30 15L30 7C30 6.449219 30.449219 6 31 6 Z M 47 6C47.550781 6 48 6.449219 48 7L48 15C48 15.550781 47.550781 16 47 16C46.449219 16 46 15.550781 46 15L46 7C46 6.449219 46.449219 6 47 6 Z M 7 11.96875L12 11.96875L12 15C12 16.652344 13.347656 18 15 18C16.652344 18 18 16.652344 18 15L18 11.96875L28 11.96875L28 15C28 16.652344 29.347656 18 31 18C32.652344 18 34 16.652344 34 15L34 11.96875L44 11.96875L44 15C44 16.652344 45.347656 18 47 18C48.652344 18 50 16.652344 50 15L50 11.96875L55 11.96875C55.601563 11.96875 56 12.429688 56 13.011719L56 20C55.398438 20 55 20.445313 55 21L55 23C55 23.554688 55.398438 24 56 24L56 54.957031C56 55.535156 55.601563 56 55 56L7 56C6.398438 56 6 55.535156 6 54.957031L6 24C6.601563 24 7 23.554688 7 23L7 21C7 20.445313 6.601563 20 6 20L6 13.011719C6 12.429688 6.398438 11.96875 7 11.96875 Z M 11 20C10.398438 20 10 20.445313 10 21L10 23C10 23.550781 10.398438 24 11 24C11.601563 24 12 23.554688 12 23L12 21C12 20.445313 11.601563 20 11 20 Z M 16 20C15.398438 20 15 20.445313 15 21L15 23C15 23.550781 15.398438 24 16 24C16.601563 24 17 23.554688 17 23L17 21C17 20.445313 16.601563 20 16 20 Z M 21 20C20.398438 20 20 20.445313 20 21L20 23C20 23.550781 20.398438 24 21 24C21.601563 24 22 23.554688 22 23L22 21C22 20.445313 21.601563 20 21 20 Z M 26 20C25.398438 20 25 20.445313 25 21L25 23C25 23.550781 25.398438 24 26 24C26.601563 24 27 23.554688 27 23L27 21C27 20.445313 26.601563 20 26 20 Z M 31 20C30.398438 20 30 20.445313 30 21L30 23C30 23.550781 30.398438 24 31 24C31.601563 24 32 23.554688 32 23L32 21C32 20.445313 31.601563 20 31 20 Z M 36 20C35.398438 20 35 20.445313 35 21L35 23C35 23.550781 35.398438 24 36 24C36.601563 24 37 23.554688 37 23L37 21C37 20.445313 36.601563 20 36 20 Z M 41 20C40.398438 20 40 20.445313 40 21L40 23C40 23.550781 40.398438 24 41 24C41.601563 24 42 23.554688 42 23L42 21C42 20.445313 41.601563 20 41 20 Z M 46 20C45.398438 20 45 20.445313 45 21L45 23C45 23.550781 45.398438 24 46 24C46.601563 24 47 23.554688 47 23L47 21C47 20.445313 46.601563 20 46 20 Z M 51 20C50.398438 20 50 20.445313 50 21L50 23C50 23.550781 50.398438 24 51 24C51.601563 24 52 23.554688 52 23L52 21C52 20.445313 51.601563 20 51 20 Z M 21 30C20.746094 30 20.488281 30.097656 20.292969 30.292969L17 33.585938L15.707031 32.292969C15.316406 31.902344 14.683594 31.902344 14.292969 32.292969C13.902344 32.683594 13.902344 33.316406 14.292969 33.707031L16.292969 35.707031C16.488281 35.902344 16.742188 36 17 36C17.257813 36 17.511719 35.902344 17.707031 35.707031L21.707031 31.707031C22.097656 31.316406 22.097656 30.683594 21.707031 30.292969C21.511719 30.097656 21.253906 30 21 30 Z M 27 32C26.449219 32 26 32.449219 26 33C26 33.550781 26.449219 34 27 34L31 34C31.550781 34 32 33.550781 32 33C32 32.449219 31.550781 32 31 32 Z M 35 32C34.449219 32 34 32.449219 34 33C34 33.550781 34.449219 34 35 34L47 34C47.550781 34 48 33.550781 48 33C48 32.449219 47.550781 32 47 32 Z M 21 38C20.746094 38 20.488281 38.097656 20.292969 38.292969L17 41.585938L15.707031 40.292969C15.316406 39.902344 14.683594 39.902344 14.292969 40.292969C13.902344 40.683594 13.902344 41.316406 14.292969 41.707031L16.292969 43.707031C16.488281 43.902344 16.742188 44 17 44C17.257813 44 17.511719 43.902344 17.707031 43.707031L21.707031 39.707031C22.097656 39.316406 22.097656 38.683594 21.707031 38.292969C21.511719 38.097656 21.253906 38 21 38 Z M 27 40C26.449219 40 26 40.449219 26 41C26 41.550781 26.449219 42 27 42L43 42C43.550781 42 44 41.550781 44 41C44 40.449219 43.550781 40 43 40 Z M 9 50C8.449219 50 8 50.449219 8 51C8 51.550781 8.449219 52 9 52L53 52C53.550781 52 54 51.550781 54 51C54 50.449219 53.550781 50 53 50Z" fill="#1B1818" />
</svg>