<svg xmlns="http://www.w3.org/2000/svg" xmlns:xlink="http://www.w3.org/1999/xlink" width="20pt" height="20pt" viewBox="0 0 20 20"><path d="M6.570313 1L6.328125 2.289063C5.398438 2.5625 4.570313 3.046875 3.890625 3.695313L2.652344 3.261719L1.222656 5.738281L2.210938 6.585938C2.097656 7.042969 2 7.507813 2 8C2 8.492188 2.097656 8.957031 2.210938 9.414063L1.222656 10.261719L2.652344 12.738281L3.886719 12.300781C4.570313 12.957031 5.398438 13.4375 6.328125 13.714844L6.570313 15L9.429688 15L9.671875 13.714844C10.601563 13.4375 11.429688 12.953125 12.109375 12.300781L13.34375 12.738281L14.777344 10.261719L13.785156 9.414063C13.898438 8.957031 14 8.492188 14 8C14 7.507813 13.902344 7.042969 13.789063 6.585938L14.777344 5.738281L13.347656 3.261719L12.113281 3.695313C11.429688 3.042969 10.601563 2.5625 9.671875 2.289063L9.429688 1 Z M 7.398438 2L8.601563 2L8.796875 3.054688L9.117188 3.132813C10.109375 3.359375 10.984375 3.878906 11.65625 4.597656L11.878906 4.835938L12.894531 4.480469L13.496094 5.519531L12.683594 6.21875L12.78125 6.53125C12.921875 6.992188 13 7.488281 13 8C13 8.511719 12.921875 9.003906 12.78125 9.46875L12.683594 9.78125L13.496094 10.480469L12.894531 11.519531L11.878906 11.160156L11.65625 11.402344C10.984375 12.121094 10.109375 12.640625 9.117188 12.871094L8.796875 12.941406L8.601563 14L7.398438 14L7.203125 12.941406L6.882813 12.871094C5.890625 12.640625 5.015625 12.121094 4.34375 11.402344L4.117188 11.160156L3.101563 11.519531L2.503906 10.480469L3.316406 9.78125L3.21875 9.46875C3.078125 9.007813 3 8.511719 3 8C3 7.488281 3.078125 6.992188 3.21875 6.53125L3.316406 6.21875L2.503906 5.519531L3.101563 4.480469L4.121094 4.835938L4.34375 4.597656C5.015625 3.878906 5.890625 3.359375 6.882813 3.132813L7.203125 3.054688 Z M 8 5C6.347656 5 5 6.347656 5 8C5 9.652344 6.347656 11 8 11C9.652344 11 11 9.652344 11 8C11 6.347656 9.652344 5 8 5 Z M 8 6C9.109375 6 10 6.890625 10 8C10 9.109375 9.109375 10 8 10C6.890625 10 6 9.109375 6 8C6 6.890625 6.890625 6 8 6Z"/></svg>